<?xml version="1.0" standalone="no"?>
<!DOCTYPE svg PUBLIC "-//W3C//DTD SVG 20010904//EN"
 "http://www.w3.org/TR/2001/REC-SVG-20010904/DTD/svg10.dtd">
<svg version="1.0" xmlns="http://www.w3.org/2000/svg"
 width="260.000000pt" height="260.000000pt" viewBox="0 0 260.000000 260.000000"
 preserveAspectRatio="xMidYMid meet">
<metadata>
Created by potrace 1.11, written by Peter Selinger 2001-2013
</metadata>
<g transform="translate(0.000000,260.000000) scale(0.100000,-0.100000)"
fill="#000000" stroke="none">
<path d="M1210 2365 c-200 -55 -340 -197 -386 -391 -22 -95 -14 -307 16 -419
31 -116 100 -242 177 -325 59 -64 65 -73 65 -114 0 -71 -25 -101 -112 -137
-539 -224 -659 -280 -760 -355 -103 -75 -130 -129 -130 -256 0 -92 9 -115 55
-134 51 -21 2259 -21 2309 0 44 18 56 55 56 170 0 74 -4 100 -24 142 -57 123
-248 224 -665 353 -187 58 -241 85 -265 135 -28 60 -14 112 57 199 121 148
175 349 164 601 -12 270 -99 437 -265 514 -71 33 -206 40 -292 17z"/>
</g>
</svg>
